<?xml version="1.0" encoding="utf-8"?>
<!-- Generator: Adobe Illustrator 25.2.3, SVG Export Plug-In . SVG Version: 6.00 Build 0)  -->
<svg version="1.1" id="Layer_1" xmlns="http://www.w3.org/2000/svg" xmlns:xlink="http://www.w3.org/1999/xlink" x="0px" y="0px"
	 viewBox="0 0 512 512" style="enable-background:new 0 0 512 512;" xml:space="preserve">
<style type="text/css">
	.st0{fill:#FFFFFF;}
	.st1{fill:#FF3962;}
	.st2{fill:#D3D3D3;}
</style>
<path class="st0" d="M500.9,256v0.3C500.7,391.4,391.1,500.9,256,500.9S11.3,391.4,11.1,256.3V256C11.1,120.8,120.8,11.1,256,11.1
	S500.9,120.8,500.9,256z"/>
<path class="st1" d="M500.9,256v0.3H11.1V256C11.1,120.8,120.8,11.1,256,11.1S500.9,120.8,500.9,256z"/>
<circle class="st2" cx="256" cy="256" r="66.8"/>
<path d="M437,75C388.7,26.6,324.4,0,256,0S123.3,26.6,75,75S0,187.6,0,256s26.6,132.7,75,181s112.6,75,181,75s132.7-26.6,181-75
	s75-112.6,75-181S485.4,123.3,437,75z M256,489.7c-125.2,0-227.6-98.9-233.5-222.6h156.4c5.4,37.7,37.9,66.8,77.1,66.8
	s71.7-29.1,77.1-66.8h34.2c6.1,0,11.1-5,11.1-11.1s-5-11.1-11.1-11.1h-34.2c-1.7-11.6-5.9-22.7-12.6-32.5c-3.4-5.1-10.4-6.4-15.5-3
	c-5.1,3.4-6.4,10.4-3,15.5c6.2,9.2,9.5,20,9.5,31.2c0,30.7-25,55.7-55.7,55.7s-55.7-25-55.7-55.7c0-27.8,20.7-51.5,48.2-55.2
	c6.1-0.8,10.4-6.4,9.6-12.5c-0.8-6.1-6.4-10.4-12.5-9.6c-34.8,4.6-61.8,32.2-66.7,66.1H22.5C28.4,121.1,130.8,22.3,256,22.3
	s227.6,98.9,233.5,222.6h-77.6c-6.1,0-11.1,5-11.1,11.1c0,6.1,5,11.1,11.1,11.1h77.6C483.6,390.9,381.2,489.7,256,489.7z"/>
<path d="M288.8,185.3c-0.1-0.1-0.2-0.1-0.3-0.1c-5.4-2.5-11.9-0.3-14.6,5.1c-2.7,5.5-0.5,12.2,5,14.9c0.1,0.1,0.2,0.1,0.3,0.1
	c1.5,0.7,3.1,1,4.7,1c4.1,0,8-2.3,10-6.2C296.5,194.7,294.3,188.1,288.8,185.3z"/>
</svg>
